<svg width="69" height="24" viewBox="0 0 69 24" fill="none" xmlns="http://www.w3.org/2000/svg">
<path d="M12 0C5.4 0 0 5.4 0 12C0 18.6 5.4 24 12 24C18.6 24 24 18.6 24 12C24 5.4 18.66 0 12 0ZM17.521 17.34C17.281 17.699 16.861 17.82 16.5 17.58C13.68 15.84 10.14 15.479 5.939 16.439C5.521 16.561 5.16 16.26 5.04 15.9C4.92 15.479 5.22 15.12 5.58 15C10.14 13.979 14.1 14.4 17.22 16.32C17.64 16.5 17.699 16.979 17.521 17.34ZM18.961 14.04C18.66 14.46 18.12 14.64 17.699 14.34C14.46 12.36 9.54 11.76 5.76 12.96C5.281 13.08 4.74 12.84 4.62 12.36C4.5 11.88 4.74 11.339 5.22 11.219C9.6 9.9 15 10.561 18.72 12.84C19.081 13.021 19.26 13.62 18.961 14.04ZM19.081 10.68C15.24 8.4 8.82 8.16 5.16 9.301C4.56 9.48 3.96 9.12 3.78 8.58C3.6 7.979 3.96 7.38 4.5 7.199C8.76 5.939 15.78 6.179 20.221 8.82C20.76 9.12 20.94 9.84 20.64 10.38C20.341 10.801 19.62 10.979 19.081 10.68Z" fill="white"/>
<path d="M29.02 16.12C30.784 16.12 32.02 15.184 32.02 13.612V13.588C32.02 12.196 31.108 11.56 29.332 11.128C27.712 10.744 27.328 10.456 27.328 9.808V9.784C27.328 9.232 27.832 8.788 28.696 8.788C29.464 8.788 30.22 9.088 30.976 9.652L31.768 8.536C30.916 7.852 29.944 7.48 28.72 7.48C27.052 7.48 25.852 8.476 25.852 9.916V9.94C25.852 11.488 26.86 12.016 28.648 12.448C30.208 12.808 30.544 13.132 30.544 13.732V13.756C30.544 14.38 29.968 14.812 29.056 14.812C28.024 14.812 27.208 14.416 26.404 13.72L25.516 14.776C26.524 15.676 27.736 16.12 29.02 16.12ZM33.5878 17.92H35.0398V15.016C35.4838 15.604 36.1438 16.132 37.1998 16.132C38.6998 16.132 40.1398 14.944 40.1398 12.844V12.82C40.1398 10.708 38.6878 9.532 37.1998 9.532C36.1678 9.532 35.5078 10.06 35.0398 10.72V9.664H33.5878V17.92ZM36.8518 14.872C35.8678 14.872 35.0038 14.056 35.0038 12.844V12.82C35.0038 11.608 35.8678 10.792 36.8518 10.792C37.8358 10.792 38.6638 11.596 38.6638 12.82V12.844C38.6638 14.092 37.8478 14.872 36.8518 14.872ZM44.6506 16.144C46.6066 16.144 48.0466 14.644 48.0466 12.844V12.82C48.0466 11.008 46.6186 9.532 44.6746 9.532C42.7306 9.532 41.2906 11.032 41.2906 12.844V12.868C41.2906 14.668 42.7186 16.144 44.6506 16.144ZM44.6746 14.872C43.5466 14.872 42.7426 13.948 42.7426 12.844V12.82C42.7426 11.716 43.4866 10.804 44.6506 10.804C45.7906 10.804 46.5946 11.728 46.5946 12.844V12.868C46.5946 13.96 45.8506 14.872 44.6746 14.872ZM51.6493 16.108C52.2013 16.108 52.5973 15.988 52.9573 15.784V14.596C52.6693 14.74 52.3813 14.812 52.0573 14.812C51.5653 14.812 51.2773 14.584 51.2773 14.02V10.912H52.9813V9.664H51.2773V7.924H49.8253V9.664H49.0213V10.912H49.8253V14.248C49.8253 15.64 50.5813 16.108 51.6493 16.108ZM54.4829 8.692H56.0429V7.312H54.4829V8.692ZM54.5429 16H55.9949V9.664H54.5429V16ZM58.2165 16H59.6685V10.912H61.3245V9.712H59.6445V9.364C59.6445 8.704 59.9325 8.404 60.4845 8.404C60.7965 8.404 61.0485 8.464 61.3365 8.56V7.336C61.0125 7.24 60.6645 7.168 60.1605 7.168C59.5365 7.168 59.0685 7.336 58.7325 7.672C58.3965 8.008 58.2165 8.536 58.2165 9.232V9.7H57.4125V10.912H58.2165V16ZM65.1522 14.368L63.3642 9.664H61.8042L64.4442 16.012C64.2042 16.552 63.9522 16.732 63.5442 16.732C63.2442 16.732 62.9562 16.636 62.6922 16.492L62.2002 17.572C62.6442 17.812 63.1002 17.956 63.7002 17.956C64.7202 17.956 65.2842 17.476 65.7882 16.18L68.3082 9.664H66.7962L65.1522 14.368Z" fill="white"/>
</svg>
